# xmcd
#
# Track frame offsets:
#	150
#	17283
#	33813
#	47659
#	65570
#	81454
#
# Disc length: 1320 seconds
#
# Revision: 1
# Processed by: cddbd v1.5.2PL0 Copyright (c) Steve Scherf et al.
# Submitted via: audiograbber 1.83.01
#
DISCID=40052606
DTITLE=Kribbelköpp - Weihnachten Zu Haus
DYEAR=2001
DGENRE=Kölsche mas
TTITLE0=Wenn dr Winter kütt
TTITLE1=Weihnachten zu Haus
TTITLE2=Weihnachtszeit
TTITLE3=Weinachtsengel
TTITLE4=Heinzelmann
TTITLE5=Du bes jebore
EXTD=YEAR: 2001
EXTT0=
EXTT1=
EXTT2=
EXTT3=
EXTT4=
EXTT5=
PLAYORDER=
